<?xml version="1.0" encoding="utf-8"?>
<!-- Generator: Adobe Illustrator 26.3.1, SVG Export Plug-In . SVG Version: 6.00 Build 0)  -->
<svg version="1.1" id="Capa_1" xmlns="http://www.w3.org/2000/svg" xmlns:xlink="http://www.w3.org/1999/xlink" x="0px" y="0px"
	 viewBox="0 0 510.24 510.24" style="enable-background:new 0 0 510.24 510.24;" xml:space="preserve">
<style type="text/css">
	.st0{fill:#FF1C1C;}
	.st1{fill:#FFFFFF;}
</style>
<g>
	<path class="st0" d="M21.2,244.18h155.32c4.76-38.67,37.74-68.73,77.68-68.73s72.93,30.06,77.68,68.73h157.16
		C483.32,119.92,380.79,20.92,255.12,20.92S26.91,119.92,21.2,244.18z"/>
	<path class="st1" d="M331.47,266.05c-5.92,37.37-38.27,66.06-77.27,66.06s-71.35-28.69-77.27-66.06H21.2
		c5.72,124.26,108.25,223.26,233.92,223.26s228.2-99,233.92-223.26H331.47z"/>
	<path d="M255.12,1.53C115.29,1.53,1.53,115.29,1.53,255.12s113.76,253.59,253.59,253.59s253.59-113.76,253.59-253.59
		S394.95,1.53,255.12,1.53z M255.12,489.31c-125.67,0-228.2-99-233.92-223.26h155.72c5.92,37.37,38.26,66.06,77.27,66.06
		s71.35-28.69,77.27-66.06h157.57C483.32,390.32,380.79,489.31,255.12,489.31z M489.04,244.18H331.88
		c-4.76-38.67-37.75-68.73-77.68-68.73s-72.93,30.06-77.68,68.73H21.2C26.91,119.92,129.44,20.92,255.12,20.92
		S483.32,119.92,489.04,244.18z M313.14,253.78c0,32.55-26.39,58.94-58.94,58.94s-58.94-26.39-58.94-58.94
		c0-32.55,26.39-58.93,58.94-58.93S313.14,221.23,313.14,253.78z"/>
	<path class="st1" d="M254.2,194.85c-32.55,0-58.94,26.39-58.94,58.93c0,32.55,26.39,58.94,58.94,58.94s58.94-26.39,58.94-58.94
		C313.14,221.23,286.75,194.85,254.2,194.85z"/>
</g>
</svg>
