<?xml version="1.0" encoding="utf-8"?>
<!-- Generator: Adobe Illustrator 26.3.1, SVG Export Plug-In . SVG Version: 6.00 Build 0)  -->
<svg version="1.1" id="Capa_1" xmlns="http://www.w3.org/2000/svg" xmlns:xlink="http://www.w3.org/1999/xlink" x="0px" y="0px"
	 viewBox="0 0 510.24 116.22" style="enable-background:new 0 0 510.24 116.22;" xml:space="preserve">
<style type="text/css">
	.st0{fill:none;}
	.st1{fill:#FF1C1C;}
	.st2{fill:#FFFFFF;}
</style>
<g>
	<path class="st0" d="M331.61,52.6c-6.71,0-10.34,5.42-10.9,16.25l-0.06,4c0,12.38,3.61,18.58,10.84,18.58
		c4.82,0,8.26-2.02,10.32-6.06V58.79C339.82,54.66,336.43,52.6,331.61,52.6z"/>
	<path class="st0" d="M261.05,52.6c-6.36,0-10.15,4.21-11.35,12.64h21.93v-1.68c0.09-3.48-0.8-6.18-2.64-8.09
		C267.14,53.56,264.49,52.6,261.05,52.6z"/>
	<path class="st0" d="M38.21,30.48H23.12v27.09h14.83c4.39,0,7.73-1.1,10.03-3.29c2.3-2.19,3.45-5.29,3.45-9.29
		c0-4.39-1.18-7.89-3.55-10.51C45.52,31.85,42.3,30.52,38.21,30.48z"/>
	<path class="st0" d="M124.71,76.25c-1.48,5.22-6.29,9.06-11.98,9.06c-5.69,0-10.49-3.84-11.98-9.06h-9.37
		c1.98,9.98,10.8,17.52,21.34,17.52s19.37-7.55,21.34-17.52H124.71z"/>
	<path class="st0" d="M407.27,52.6c-6.36,0-10.15,4.21-11.35,12.64h21.93v-1.68c0.09-3.48-0.8-6.18-2.64-8.09
		C413.35,53.56,410.71,52.6,407.27,52.6z"/>
	<path d="M57.02,16.96C51.49,14.32,45.14,13,37.96,13H0.48v93.91h22.64V75.04h14.45c11.44,0,20.43-2.74,26.99-8.22
		c6.56-5.48,9.84-12.8,9.84-21.96c0-6.19-1.52-11.73-4.55-16.61C66.82,23.37,62.54,19.61,57.02,16.96z M47.99,54.28
		c-2.3,2.19-5.64,3.29-10.03,3.29H23.12V30.48h15.09c4.08,0.04,7.31,1.38,9.67,4c2.36,2.62,3.55,6.13,3.55,10.51
		C51.44,48.99,50.29,52.08,47.99,54.28z"/>
	<polygon points="225.32,37.12 199.26,37.12 182.88,57.5 180.69,60.4 180.69,7.77 158.95,7.77 158.95,106.91 180.69,106.91 
		180.69,87.04 186.82,80.91 202.04,106.91 226.93,106.91 200.88,65.82 	"/>
	<path d="M261.18,35.83c-6.97,0-12.99,1.49-18.06,4.48c-5.07,2.99-8.93,7.21-11.58,12.67c-2.64,5.46-3.97,11.76-3.97,18.9v1.81
		c0,10.23,3.31,18.54,9.93,24.93c6.62,6.39,15.29,9.58,25.99,9.58c5.72,0,11.06-1.11,16.03-3.32s8.8-5.19,11.51-8.93l-9.93-11.74
		c-3.87,4.82-9.25,7.22-16.12,7.22c-4.17,0-7.57-1.12-10.19-3.35c-2.62-2.24-4.32-5.31-5.1-9.22h43.21V70.4
		c0-10.88-2.84-19.36-8.51-25.44C278.72,38.87,270.98,35.83,261.18,35.83z M271.63,65.24H249.7c1.2-8.43,4.99-12.64,11.35-12.64
		c3.44,0,6.08,0.96,7.93,2.87c1.85,1.91,2.73,4.61,2.64,8.09V65.24z"/>
	<path d="M341.8,43.18c-4.26-4.9-9.5-7.35-15.74-7.35c-8.56,0-15.22,3.18-19.99,9.55c-4.77,6.36-7.16,15.07-7.16,26.12
		c0,11.74,2.43,20.79,7.29,27.15c4.86,6.36,11.44,9.55,19.74,9.55c6.88,0,12.55-2.92,17.03-8.77l1.1,7.48h19.54V7.84h-21.8V43.18z
		 M341.8,85.36c-2.06,4.04-5.5,6.06-10.32,6.06c-7.22,0-10.84-6.19-10.84-18.58l0.06-4c0.56-10.84,4.19-16.25,10.9-16.25
		c4.82,0,8.21,2.06,10.19,6.19V85.36z"/>
	<path d="M407.4,35.83c-6.97,0-12.99,1.49-18.06,4.48c-5.07,2.99-8.93,7.21-11.58,12.67c-2.64,5.46-3.97,11.76-3.97,18.9v1.81
		c0,10.23,3.31,18.54,9.93,24.93c6.62,6.39,15.29,9.58,25.99,9.58c5.72,0,11.06-1.11,16.03-3.32s8.8-5.19,11.51-8.93l-9.93-11.74
		c-3.87,4.82-9.25,7.22-16.12,7.22c-4.17,0-7.57-1.12-10.19-3.35c-2.62-2.24-4.32-5.31-5.1-9.22h43.21V70.4
		c0-10.88-2.84-19.36-8.51-25.44C424.94,38.87,417.2,35.83,407.4,35.83z M417.84,65.24h-21.93c1.2-8.43,4.99-12.64,11.35-12.64
		c3.44,0,6.08,0.96,7.93,2.87c1.85,1.91,2.73,4.61,2.64,8.09V65.24z"/>
	<polygon points="490.47,71.11 508.85,37.12 486.28,37.12 476.15,56.34 466.35,37.12 443.51,37.12 461.83,71.11 442.48,106.91 
		465.31,106.91 476.09,86.27 487.05,106.91 509.75,106.91 	"/>
	<path class="st1" d="M112.73,50.25c-10.66,0-19.55,7.71-21.4,17.84h9.89c1.87-4.52,6.33-7.7,11.51-7.7c5.19,0,9.64,3.19,11.51,7.7
		h9.89C132.28,57.96,123.39,50.25,112.73,50.25z"/>
	<path d="M112.73,35.57c-20.12,0-36.44,16.31-36.44,36.44c0,20.12,16.31,36.44,36.44,36.44c20.12,0,36.44-16.31,36.44-36.44
		C149.17,51.89,132.86,35.57,112.73,35.57z M119.72,72.85c0,3.86-3.14,6.99-6.99,6.99c-3.86,0-6.99-3.14-6.99-6.99
		s3.14-6.99,6.99-6.99C116.59,65.86,119.72,69,119.72,72.85z M124.24,68.1c-1.87-4.52-6.33-7.7-11.51-7.7
		c-5.19,0-9.64,3.19-11.51,7.7h-9.89c1.85-10.14,10.74-17.84,21.4-17.84s19.55,7.71,21.4,17.84H124.24z M112.73,93.77
		c-10.55,0-19.37-7.55-21.34-17.52h9.37c1.48,5.22,6.29,9.06,11.98,9.06c5.69,0,10.49-3.84,11.98-9.06h9.37
		C132.1,86.23,123.28,93.77,112.73,93.77z"/>
	<circle class="st2" cx="112.73" cy="72.85" r="6.99"/>
</g>
</svg>
