<?xml version="1.0" encoding="utf-8"?>
<!-- Generator: Adobe Illustrator 26.3.1, SVG Export Plug-In . SVG Version: 6.00 Build 0)  -->
<svg version="1.1" id="Capa_1" xmlns="http://www.w3.org/2000/svg" xmlns:xlink="http://www.w3.org/1999/xlink" x="0px" y="0px"
	 viewBox="0 0 510.24 510.24" style="enable-background:new 0 0 510.24 510.24;" xml:space="preserve">
<style type="text/css">
	.st0{fill:#FFFFFF;}
</style>
<g>
	<g>
		<path class="st0" d="M219.16,311.19c-3.4,0-6.79-0.06-10.19,0.03c-1.39,0.04-1.88-0.3-1.9-1.79c-0.06-5.77-0.3-11.53-0.4-17.3
			c-0.12-7.09-2.49-13.08-7.61-18.21c-32.92-32.97-65.73-66.04-98.58-99.09c-0.78-0.78-1.5-1.61-2.24-2.43
			c-1.65-1.84-1.32-3.79-0.05-5.58c1.28-1.79,3.09-2.72,5.3-1.81c8.63,3.57,16.9,7.88,25.08,12.33
			c11.55,6.29,22.89,12.92,33.96,20.02c4.02,2.58,8.33,3.97,13.2,3.9c9.59-0.13,19.19,0.02,28.78-0.09
			c2.02-0.02,2.77,0.32,2.68,2.56c-0.2,4.83-0.03,9.67-0.07,14.5c-0.05,6.34,2.28,11.41,7.31,15.44
			c21.2,16.99,41.5,34.99,60.89,54.04c26.02,25.56,48.33,54.09,69.1,83.97c15.77,22.69,29.26,46.66,41.7,71.27
			c1.26,2.49,2.26,5.11,3.36,7.68c1.02,2.38,0.2,4.34-1.62,5.89c-1.94,1.65-4.01,1.62-5.98-0.04c-0.71-0.6-1.42-1.21-2.07-1.87
			c-14.79-14.97-29.61-29.92-44.34-44.95c-4.54-4.64-9.89-6.94-16.36-6.86c-6.03,0.08-12.06-0.05-18.08,0.06
			c-1.73,0.03-2.31-0.34-2.27-2.19c0.13-5.77,0.03-11.54,0.05-17.31c0.03-6.87-2.32-12.69-7.22-17.57
			c-15.94-15.86-31.87-31.74-47.71-47.7c-4.7-4.74-10.19-7.13-16.85-6.92C224.43,311.25,221.79,311.19,219.16,311.19z"/>
		<path class="st0" d="M257.61,219.55c-3.91,0-7.81-0.08-11.71,0.04c-1.63,0.05-2.14-0.37-2.12-2.07c0.1-7.04,0.02-14.08,0.05-21.13
			c0.02-6.33-1.99-11.77-6.65-16.19c-3.45-3.27-6.77-6.68-10.15-10.02c-1.14-1.13-2.15-2.35-1.08-4c1.11-1.71,2.67-1.8,4.44-1
			c9.51,4.33,18.46,9.7,27.5,14.89c21.03,12.1,39.43,27.58,57.11,44.03c18.26,16.99,35.02,35.28,49.01,55.99
			c9.64,14.27,18.35,29.1,26.03,44.53c0.86,1.72,0.54,3.18-0.82,4.33c-1.5,1.26-2.52,0.19-3.63-0.91
			c-9.92-9.76-19.95-19.42-29.8-29.24c-4.18-4.17-9.06-6.02-14.88-5.96c-7.13,0.08-14.26-0.05-21.39,0.06
			c-1.83,0.03-2.45-0.32-2.41-2.31c0.14-7.12,0.08-14.25,0.05-21.38c-0.03-6.04-2.07-11.21-6.44-15.51
			c-9.31-9.17-18.63-18.34-27.76-27.69c-4.45-4.56-9.63-6.7-15.94-6.48C263.89,219.64,260.75,219.55,257.61,219.55z"/>
		<path class="st0" d="M152.13,369.6c-0.25-3.83,0.39-8.5-0.34-13.14c-0.71-4.52-2.76-8.28-5.99-11.5
			c-15.38-15.34-30.74-30.7-46.09-46.06c-0.83-0.83-1.66-1.72-2.28-2.71c-0.71-1.11-0.15-2.19,0.71-2.95
			c0.65-0.57,1.46-1.21,2.46-0.42c2.88,2.26,6.26,3.64,9.47,5.31c30.35,15.81,58.41,34.83,82.48,59.31
			c27.13,27.6,51.09,57.58,67.9,92.75c0.47,0.99,0.93,2,1.36,3.01c0.63,1.47,0.14,2.64-1.07,3.55c-1.25,0.94-2.41,0.5-3.46-0.39
			c-0.58-0.49-1.09-1.06-1.63-1.6c-21.24-21.24-42.54-42.42-63.67-63.77c-4.79-4.84-10.12-7.33-16.97-7.06
			c-6.78,0.27-13.58-0.05-20.37,0.12c-2.23,0.06-2.65-0.65-2.56-2.68C152.25,377.73,152.13,374.07,152.13,369.6z"/>
	</g>
	<path class="st0" d="M107.87,103.01l29.47,12.82l12.29,29.45c0.6,1.21,2.2,2.19,3.55,2.19c0,0,0,0,0,0
		c1.35-0.01,2.93-0.99,3.53-2.19l12.3-29.46l29.46-12.3c1.2-0.6,2.18-2.19,2.19-3.53c-0.52-1.37-0.99-2.98-2.18-3.57l-29.33-12.23
		l-0.24-0.24l-12.21-29.27c-0.6-1.21-2.18-2.18-3.53-2.2c0,0,0,0,0,0c-1.35,0-2.95,0.98-3.55,2.19l-12.29,29.45l-29.47,12.29
		c-1.21,0.65-2.19,2.2-2.19,3.56C105.69,101.35,106.67,102.89,107.87,103.01z"/>
	<path class="st0" d="M508.31,400.46c0-1.26-0.92-2.74-2.04-3.3l-27.45-11.45l-11.5-27.5c-0.1-1.1-1.54-2.05-2.81-2.05
		c-1.26,0-2.74,0.91-3.3,2.05l-11.46,27.48l-27.49,11.47c-1.12,0.56-2.04,2.04-2.04,3.3c0,1.25,0.92,2.74,2.04,3.3l27.45,11.45
		l11.5,27.5c0.59,1.11,2.03,2.05,3.3,2.05c1.26,0,2.74-0.92,3.3-2.05l11.46-27.48l27.49-11.47
		C507.86,403.17,508.31,401.73,508.31,400.46z"/>
	<path class="st0" d="M22.57,234.5l8.22,19.71c0.98,0.81,2.04,1.47,2.37,1.47c0.33,0,1.96-0.66,2.37-1.47l8.22-19.71l19.71-8.22
		c0.81-0.4,1.47-1.47,1.47-2.37c0-0.9-0.66-1.96-1.47-2.37l-19.71-8.22l-7.61-19.71c-0.99-0.81-1.46-1.47-2.98-1.47
		c-1.52,0-1.39,0.66-1.79,1.47l-8.8,19.71l-19.12,8.22c-1.39,0.4-1.46,1.46-1.46,2.37c0,0.9,0.66,1.96,1.46,2.37L22.57,234.5z"/>
</g>
</svg>
