<?xml version="1.0" encoding="utf-8"?>
<!-- Generator: Adobe Illustrator 26.3.1, SVG Export Plug-In . SVG Version: 6.00 Build 0)  -->
<svg version="1.1" id="Capa_1" xmlns="http://www.w3.org/2000/svg" xmlns:xlink="http://www.w3.org/1999/xlink" x="0px" y="0px"
	 viewBox="0 0 510.24 510.24" style="enable-background:new 0 0 510.24 510.24;" xml:space="preserve">
<style type="text/css">
	.st0{fill:#FFFFFF;}
</style>
<g>
	<path class="st0" d="M213.44,255.33c-5.85,0-11.7-0.11-17.55,0.05c-2.39,0.06-3.24-0.52-3.27-3.08c-0.1-9.94-0.52-19.87-0.69-29.8
		c-0.2-12.22-4.28-22.54-13.1-31.37C122.13,134.33,65.61,77.35,9.03,20.42c-1.34-1.35-2.59-2.77-3.86-4.19
		c-2.84-3.17-2.28-6.53-0.08-9.61c2.2-3.09,5.33-4.69,9.12-3.12c14.86,6.14,29.11,13.57,43.21,21.25
		c19.89,10.83,39.43,22.26,58.5,34.49c6.92,4.44,14.35,6.84,22.73,6.72c16.52-0.23,33.05,0.04,49.57-0.15
		c3.48-0.04,4.78,0.56,4.62,4.4c-0.34,8.32-0.05,16.66-0.12,24.99c-0.09,10.92,3.93,19.66,12.59,26.6
		c36.52,29.27,71.5,60.28,104.9,93.09c44.82,44.03,83.26,93.19,119.05,144.65c27.17,39.08,50.41,80.39,71.84,122.78
		c2.17,4.29,3.9,8.81,5.79,13.23c1.76,4.1,0.34,7.48-2.78,10.15c-3.34,2.85-6.9,2.79-10.31-0.07c-1.23-1.03-2.45-2.08-3.57-3.22
		c-25.48-25.79-51.01-51.54-76.38-77.44c-7.82-7.99-17.03-11.96-28.19-11.81c-10.38,0.14-20.77-0.09-31.15,0.1
		c-2.98,0.05-3.98-0.58-3.91-3.77c0.23-9.93,0.05-19.87,0.09-29.81c0.06-11.83-3.99-21.87-12.44-30.27
		c-27.46-27.32-54.9-54.68-82.19-82.18c-8.1-8.17-17.56-12.27-29.04-11.93C222.51,255.44,217.98,255.33,213.44,255.33z"/>
	<path class="st0" d="M279.68,97.47c-6.73,0-13.46-0.14-20.18,0.06c-2.81,0.08-3.69-0.63-3.65-3.57
		c0.17-12.13,0.04-24.26,0.08-36.39c0.04-10.9-3.43-20.27-11.45-27.9c-5.94-5.64-11.65-11.5-17.48-17.26
		c-1.97-1.95-3.71-4.05-1.86-6.89c1.91-2.94,4.59-3.11,7.65-1.72c16.38,7.46,31.8,16.7,47.37,25.66
		c36.23,20.84,67.92,47.51,98.38,75.84c31.47,29.27,60.34,60.78,84.43,96.45c16.61,24.59,31.61,50.14,44.85,76.71
		c1.48,2.96,0.94,5.48-1.41,7.45c-2.58,2.17-4.35,0.32-6.26-1.56c-17.09-16.82-34.36-33.45-51.34-50.38
		c-7.2-7.18-15.61-10.37-25.63-10.26c-12.28,0.14-24.57-0.08-36.85,0.11c-3.15,0.05-4.21-0.55-4.14-3.98
		c0.24-12.27,0.14-24.55,0.08-36.83c-0.05-10.4-3.56-19.32-11.09-26.73c-16.04-15.8-32.09-31.6-47.82-47.7
		c-7.67-7.85-16.59-11.55-27.46-11.16C290.5,97.62,285.09,97.47,279.68,97.47z"/>
	<path class="st0" d="M97.96,355.96c-0.43-6.59,0.67-14.64-0.59-22.64c-1.22-7.79-4.76-14.27-10.32-19.82
		c-26.5-26.42-52.96-52.88-79.4-79.36c-1.44-1.44-2.85-2.96-3.93-4.67c-1.22-1.92-0.26-3.78,1.23-5.08
		c1.12-0.98,2.51-2.08,4.23-0.73c4.96,3.89,10.79,6.27,16.31,9.15c52.28,27.24,100.63,60,142.09,102.17
		c46.75,47.55,88.02,99.19,116.98,159.78c0.82,1.71,1.6,3.44,2.35,5.18c1.09,2.53,0.25,4.55-1.85,6.11
		c-2.16,1.62-4.15,0.86-5.96-0.66c-1-0.84-1.89-1.83-2.82-2.76c-36.59-36.59-73.28-73.08-109.68-109.85
		c-8.25-8.33-17.43-12.62-29.24-12.16c-11.68,0.46-23.4-0.09-35.08,0.21c-3.84,0.1-4.57-1.12-4.4-4.62
		C98.17,369.96,97.96,363.66,97.96,355.96z"/>
</g>
</svg>
