<?xml version="1.0" encoding="utf-8"?>
<!-- Generator: Adobe Illustrator 26.3.1, SVG Export Plug-In . SVG Version: 6.00 Build 0)  -->
<svg version="1.1" id="Capa_1" xmlns="http://www.w3.org/2000/svg" xmlns:xlink="http://www.w3.org/1999/xlink" x="0px" y="0px"
	 viewBox="0 0 510.24 510.24" style="enable-background:new 0 0 510.24 510.24;" xml:space="preserve">
<style type="text/css">
	.st0{fill:#FFFFFF;}
</style>
<g>
	<path class="st0" d="M255.04,73.07c24.89,17.14,51.54,31.59,79.64,43.17c26.09,10.75,53.03,18.86,80.55,24.27v111.9
		c0,0.11,0,0.22,0,0.33c0.21,36.69-12.79,72.26-36.61,100.16c-30.81,35.5-72.3,66.74-123.6,93.07
		c-51.36-26.32-92.82-57.52-123.47-92.98c-23.84-27.98-36.81-63.62-36.53-100.37c0-0.15,0-0.3,0-0.45V140.48
		c27.5-5.42,54.42-13.53,80.48-24.28C203.55,104.63,230.17,90.19,255.04,73.07 M255.04,0L255.04,0C255.05,0,255.04,0,255.04,0
		C255.04,0,255.04,0,255.04,0L255.04,0z M255.04,0C194.13,52.86,117.63,84.41,37.15,89.85v162.32
		c-0.39,50.73,17.53,99.9,50.46,138.48c41.3,47.83,97.58,87.7,167.42,119.59c69.68-31.89,125.96-71.75,167.42-119.59
		c32.94-38.5,50.91-87.58,50.62-138.25V89.85C392.56,84.46,315.99,52.9,255.04,0L255.04,0z"/>
</g>
</svg>
