<?xml version="1.0" encoding="utf-8"?>
<!-- Generator: Adobe Illustrator 26.3.1, SVG Export Plug-In . SVG Version: 6.00 Build 0)  -->
<svg version="1.1" id="Capa_1" xmlns="http://www.w3.org/2000/svg" xmlns:xlink="http://www.w3.org/1999/xlink" x="0px" y="0px"
	 viewBox="0 0 510.24 510.24" style="enable-background:new 0 0 510.24 510.24;" xml:space="preserve">
<style type="text/css">
	.st0{fill:#FFFFFF;}
</style>
<path class="st0" d="M255.04,0C194.12,52.87,117.61,84.42,37.14,89.86v162.33c-0.39,50.73,17.53,99.91,50.47,138.49
	c41.3,47.84,97.59,87.7,167.43,119.6c69.69-31.89,125.97-71.76,167.43-119.6c32.94-38.5,50.92-87.58,50.63-138.26V89.86
	C392.56,84.47,315.99,52.91,255.04,0L255.04,0z M358.69,238.24l-45.77,44.49l10.92,62.91c0.39,2.37-0.26,4.81-1.79,6.67
	c-1.52,1.86-3.78,2.98-6.19,3.06c-1.33-0.02-2.64-0.35-3.83-0.96l-57.01-29.74l-56.53,29.74c-2.77,1.53-6.18,1.28-8.69-0.64
	c-2.5-1.84-3.78-4.9-3.35-7.97l10.92-62.91l-46.01-44.65c-2.59-2.08-3.63-5.54-2.6-8.7c1.03-3.16,3.91-5.35,7.23-5.5l63.39-8.77
	l28.14-57.17c1.59-2.62,4.43-4.21,7.5-4.21c3.06,0,5.91,1.6,7.5,4.21l28.14,57.17l63.15,9.17c3.11,0.49,5.7,2.67,6.7,5.66
	C361.49,232.94,360.79,236.09,358.69,238.24L358.69,238.24z"/>
</svg>
