<?xml version="1.0" encoding="utf-8"?>
<!-- Generator: Adobe Illustrator 26.3.1, SVG Export Plug-In . SVG Version: 6.00 Build 0)  -->
<svg version="1.1" id="Capa_1" xmlns="http://www.w3.org/2000/svg" xmlns:xlink="http://www.w3.org/1999/xlink" x="0px" y="0px"
	 viewBox="0 0 510.24 510.24" style="enable-background:new 0 0 510.24 510.24;" xml:space="preserve">
<style type="text/css">
	.st0{fill:#FFFFFF;}
</style>
<path class="st0" d="M3.73,186.21v-5.7c0-68.64,49.61-127.19,117.25-138.46c43.89-7.45,90.34,7.14,122.35,39.2l11.78,11.76
	l10.9-11.76c32.9-32.06,78.46-46.65,123.24-39.2c67.66,11.27,117.25,69.82,117.25,138.46v5.7c0,40.75-16.89,79.74-46.74,107.53
	L282.32,459.39c-7.36,6.87-17.09,10.7-27.2,10.7s-19.84-3.83-27.2-10.7L50.46,293.73C20.65,265.94,3.73,226.96,3.73,186.21
	L3.73,186.21z"/>
</svg>
